<?xml version="1.0" encoding="utf-8"?>
<svg xmlns="http://www.w3.org/2000/svg" viewBox="25 648 300 345">
<defs>
  <marker id="ag" viewBox="0 0 10 10" refX="9" refY="5"
    markerWidth="6" markerHeight="6" orient="auto-start-reverse">
    <path d="M2 2L8 5L2 8" fill="none" stroke="#f0b030" stroke-width="1.5"
      stroke-linecap="round" stroke-linejoin="round"/>
  </marker>
</defs>
<rect x="25" y="648" width="300" height="345" fill="#0d1117"/>
<text x="87" y="662" font-size="11" fill="#f78166" font-weight="700" font-family="sans-serif" text-anchor="middle">s</text>
<text x="151" y="662" font-size="11" fill="#79c0ff" font-weight="700" font-family="sans-serif" text-anchor="middle">p</text>
<text x="215" y="662" font-size="11" fill="#56d364" font-weight="700" font-family="sans-serif" text-anchor="middle">d</text>
<text x="279" y="662" font-size="11" fill="#d2a8ff" font-weight="700" font-family="sans-serif" text-anchor="middle">f</text>
<text x="52" y="691" font-size="9" fill="#8b949e" font-weight="400" font-family="sans-serif" text-anchor="end">n=1</text>
<text x="52" y="737" font-size="9" fill="#8b949e" font-weight="400" font-family="sans-serif" text-anchor="end">n=2</text>
<text x="52" y="783" font-size="9" fill="#8b949e" font-weight="400" font-family="sans-serif" text-anchor="end">n=3</text>
<text x="52" y="829" font-size="9" fill="#8b949e" font-weight="400" font-family="sans-serif" text-anchor="end">n=4</text>
<text x="52" y="875" font-size="9" fill="#8b949e" font-weight="400" font-family="sans-serif" text-anchor="end">n=5</text>
<text x="52" y="921" font-size="9" fill="#8b949e" font-weight="400" font-family="sans-serif" text-anchor="end">n=6</text>
<text x="52" y="967" font-size="9" fill="#8b949e" font-weight="400" font-family="sans-serif" text-anchor="end">n=7</text>
<rect x="60" y="668" width="54" height="38" rx="5" fill="#21262d" stroke="#f78166" stroke-width="1.0" opacity="1.0"/>
<text x="87" y="692" font-size="13" fill="#f78166" font-weight="700" font-family="sans-serif" text-anchor="middle">1s</text>
<rect x="60" y="714" width="54" height="38" rx="5" fill="#21262d" stroke="#f78166" stroke-width="1.0" opacity="1.0"/>
<text x="87" y="738" font-size="13" fill="#f78166" font-weight="700" font-family="sans-serif" text-anchor="middle">2s</text>
<rect x="124" y="714" width="54" height="38" rx="5" fill="#21262d" stroke="#79c0ff" stroke-width="1.0" opacity="1.0"/>
<text x="151" y="738" font-size="13" fill="#79c0ff" font-weight="700" font-family="sans-serif" text-anchor="middle">2p</text>
<rect x="60" y="760" width="54" height="38" rx="5" fill="#21262d" stroke="#f78166" stroke-width="1.0" opacity="1.0"/>
<text x="87" y="784" font-size="13" fill="#f78166" font-weight="700" font-family="sans-serif" text-anchor="middle">3s</text>
<rect x="124" y="760" width="54" height="38" rx="5" fill="#21262d" stroke="#79c0ff" stroke-width="1.0" opacity="1.0"/>
<text x="151" y="784" font-size="13" fill="#79c0ff" font-weight="700" font-family="sans-serif" text-anchor="middle">3p</text>
<rect x="188" y="760" width="54" height="38" rx="5" fill="#21262d" stroke="#56d364" stroke-width="1.0" opacity="1.0"/>
<text x="215" y="784" font-size="13" fill="#56d364" font-weight="700" font-family="sans-serif" text-anchor="middle">3d</text>
<rect x="60" y="806" width="54" height="38" rx="5" fill="#21262d" stroke="#f78166" stroke-width="1.0" opacity="1.0"/>
<text x="87" y="830" font-size="13" fill="#f78166" font-weight="700" font-family="sans-serif" text-anchor="middle">4s</text>
<rect x="124" y="806" width="54" height="38" rx="5" fill="#21262d" stroke="#79c0ff" stroke-width="1.0" opacity="1.0"/>
<text x="151" y="830" font-size="13" fill="#79c0ff" font-weight="700" font-family="sans-serif" text-anchor="middle">4p</text>
<rect x="188" y="806" width="54" height="38" rx="5" fill="#21262d" stroke="#56d364" stroke-width="1.0" opacity="1.0"/>
<text x="215" y="830" font-size="13" fill="#56d364" font-weight="700" font-family="sans-serif" text-anchor="middle">4d</text>
<rect x="252" y="806" width="54" height="38" rx="5" fill="#21262d" stroke="#d2a8ff" stroke-width="1.0" opacity="1.0"/>
<text x="279" y="830" font-size="13" fill="#d2a8ff" font-weight="700" font-family="sans-serif" text-anchor="middle">4f</text>
<rect x="60" y="852" width="54" height="38" rx="5" fill="#21262d" stroke="#f78166" stroke-width="1.0" opacity="1.0"/>
<text x="87" y="876" font-size="13" fill="#f78166" font-weight="700" font-family="sans-serif" text-anchor="middle">5s</text>
<rect x="124" y="852" width="54" height="38" rx="5" fill="#21262d" stroke="#79c0ff" stroke-width="1.0" opacity="1.0"/>
<text x="151" y="876" font-size="13" fill="#79c0ff" font-weight="700" font-family="sans-serif" text-anchor="middle">5p</text>
<rect x="188" y="852" width="54" height="38" rx="5" fill="#21262d" stroke="#56d364" stroke-width="1.0" opacity="1.0"/>
<text x="215" y="876" font-size="13" fill="#56d364" font-weight="700" font-family="sans-serif" text-anchor="middle">5d</text>
<rect x="252" y="852" width="54" height="38" rx="5" fill="#21262d" stroke="#d2a8ff" stroke-width="1.0" opacity="1.0"/>
<text x="279" y="876" font-size="13" fill="#d2a8ff" font-weight="700" font-family="sans-serif" text-anchor="middle">5f</text>
<rect x="60" y="898" width="54" height="38" rx="5" fill="#21262d" stroke="#f78166" stroke-width="1.0" opacity="1.0"/>
<text x="87" y="922" font-size="13" fill="#f78166" font-weight="700" font-family="sans-serif" text-anchor="middle">6s</text>
<rect x="124" y="898" width="54" height="38" rx="5" fill="#21262d" stroke="#79c0ff" stroke-width="1.0" opacity="1.0"/>
<text x="151" y="922" font-size="13" fill="#79c0ff" font-weight="700" font-family="sans-serif" text-anchor="middle">6p</text>
<rect x="188" y="898" width="54" height="38" rx="5" fill="#21262d" stroke="#56d364" stroke-width="1.0" opacity="1.0"/>
<text x="215" y="922" font-size="13" fill="#56d364" font-weight="700" font-family="sans-serif" text-anchor="middle">6d</text>
<rect x="60" y="944" width="54" height="38" rx="5" fill="#21262d" stroke="#f78166" stroke-width="1.0" opacity="1.0"/>
<text x="87" y="968" font-size="13" fill="#f78166" font-weight="700" font-family="sans-serif" text-anchor="middle">7s</text>
<rect x="124" y="944" width="54" height="38" rx="5" fill="#21262d" stroke="#79c0ff" stroke-width="1.0" opacity="1.0"/>
<text x="151" y="968" font-size="13" fill="#79c0ff" font-weight="700" font-family="sans-serif" text-anchor="middle">7p</text>
<line x1="151" y1="733" x2="102" y2="768" stroke="#f0b030" stroke-width="1.4" opacity="0.65" marker-end="url(#ag)"/>
<line x1="151" y1="779" x2="102" y2="814" stroke="#f0b030" stroke-width="1.4" opacity="0.65" marker-end="url(#ag)"/>
<line x1="215" y1="779" x2="166" y2="814" stroke="#f0b030" stroke-width="1.4" opacity="0.65" marker-end="url(#ag)"/>
<line x1="151" y1="825" x2="102" y2="860" stroke="#f0b030" stroke-width="1.4" opacity="0.65" marker-end="url(#ag)"/>
<line x1="215" y1="825" x2="166" y2="860" stroke="#f0b030" stroke-width="1.4" opacity="0.65" marker-end="url(#ag)"/>
<line x1="151" y1="871" x2="102" y2="906" stroke="#f0b030" stroke-width="1.4" opacity="0.65" marker-end="url(#ag)"/>
<line x1="279" y1="825" x2="230" y2="860" stroke="#f0b030" stroke-width="1.4" opacity="0.65" marker-end="url(#ag)"/>
<line x1="215" y1="871" x2="166" y2="906" stroke="#f0b030" stroke-width="1.4" opacity="0.65" marker-end="url(#ag)"/>
<line x1="151" y1="917" x2="102" y2="952" stroke="#f0b030" stroke-width="1.4" opacity="0.65" marker-end="url(#ag)"/>
<line x1="279" y1="871" x2="230" y2="906" stroke="#f0b030" stroke-width="1.4" opacity="0.65" marker-end="url(#ag)"/>
<line x1="215" y1="917" x2="166" y2="952" stroke="#f0b030" stroke-width="1.4" opacity="0.65" marker-end="url(#ag)"/>
</svg>
