<?xml version="1.0" encoding="utf-8"?>
<svg xmlns="http://www.w3.org/2000/svg" viewBox="573 112 228 228">
<rect x="573" y="112" width="228" height="228" fill="#0d1117"/>
<circle cx="687" cy="226.0" r="18" fill="none" stroke="#30363d" stroke-width="0.8"/>
<circle cx="687" cy="226.0" r="40" fill="none" stroke="#30363d" stroke-width="0.8"/>
<circle cx="687" cy="226.0" r="62" fill="none" stroke="#30363d" stroke-width="0.8"/>
<circle cx="687" cy="226.0" r="84" fill="none" stroke="#30363d" stroke-width="0.8"/>
<circle cx="687" cy="226.0" r="12.8" fill="#1c2a1c" stroke="#40a040" stroke-width="1"/>
<text x="687" y="227.0" font-size="7" fill="#80e080" font-family="sans-serif" text-anchor="middle" dominant-baseline="central">34p</text>
<circle cx="705.0" cy="226.0" r="3.5" fill="#f78166" opacity="0.9"/>
<text x="717.0" y="226.0" font-size="5.5" fill="#f78166" font-family="sans-serif" text-anchor="middle" dominant-baseline="central" font-weight="600">1s</text>
<circle cx="669.0" cy="226.0" r="3.5" fill="#f78166" opacity="0.9"/>
<circle cx="702.3" cy="189.0" r="3.5" fill="#f78166" opacity="0.9"/>
<text x="706.9" y="178.0" font-size="5.5" fill="#f78166" font-family="sans-serif" text-anchor="middle" dominant-baseline="central" font-weight="600">2s</text>
<circle cx="724.0" cy="210.7" r="3.5" fill="#f78166" opacity="0.9"/>
<circle cx="724.0" cy="241.3" r="3.5" fill="#79c0ff" opacity="0.9"/>
<text x="735.0" y="245.9" font-size="5.5" fill="#79c0ff" font-family="sans-serif" text-anchor="middle" dominant-baseline="central" font-weight="600">2p</text>
<circle cx="702.3" cy="263.0" r="3.5" fill="#79c0ff" opacity="0.9"/>
<circle cx="671.7" cy="263.0" r="3.5" fill="#79c0ff" opacity="0.9"/>
<circle cx="650.0" cy="241.3" r="3.5" fill="#79c0ff" opacity="0.9"/>
<circle cx="650.0" cy="210.7" r="3.5" fill="#79c0ff" opacity="0.9"/>
<circle cx="671.7" cy="189.0" r="3.5" fill="#79c0ff" opacity="0.9"/>
<circle cx="697.8" cy="164.9" r="3.5" fill="#f78166" opacity="0.9"/>
<text x="699.8" y="153.1" font-size="5.5" fill="#f78166" font-family="sans-serif" text-anchor="middle" dominant-baseline="central" font-weight="600">3s</text>
<circle cx="718.0" cy="172.3" r="3.5" fill="#f78166" opacity="0.9"/>
<circle cx="734.5" cy="186.1" r="3.5" fill="#79c0ff" opacity="0.9"/>
<text x="743.7" y="178.4" font-size="5.5" fill="#79c0ff" font-family="sans-serif" text-anchor="middle" dominant-baseline="central" font-weight="600">3p</text>
<circle cx="745.3" cy="204.8" r="3.5" fill="#79c0ff" opacity="0.9"/>
<circle cx="749.0" cy="226.0" r="3.5" fill="#79c0ff" opacity="0.9"/>
<circle cx="745.3" cy="247.2" r="3.5" fill="#79c0ff" opacity="0.9"/>
<circle cx="734.5" cy="265.9" r="3.5" fill="#79c0ff" opacity="0.9"/>
<circle cx="718.0" cy="279.7" r="3.5" fill="#79c0ff" opacity="0.9"/>
<circle cx="697.8" cy="287.1" r="3.5" fill="#56d364" opacity="0.9"/>
<text x="699.8" y="298.9" font-size="5.5" fill="#56d364" font-family="sans-serif" text-anchor="middle" dominant-baseline="central" font-weight="600">3d</text>
<circle cx="676.2" cy="287.1" r="3.5" fill="#56d364" opacity="0.9"/>
<circle cx="656.0" cy="279.7" r="3.5" fill="#56d364" opacity="0.9"/>
<circle cx="639.5" cy="265.9" r="3.5" fill="#56d364" opacity="0.9"/>
<circle cx="628.7" cy="247.2" r="3.5" fill="#56d364" opacity="0.9"/>
<circle cx="625.0" cy="226.0" r="3.5" fill="#56d364" opacity="0.9"/>
<circle cx="628.7" cy="204.8" r="3.5" fill="#56d364" opacity="0.9"/>
<circle cx="639.5" cy="186.1" r="3.5" fill="#56d364" opacity="0.9"/>
<circle cx="656.0" cy="172.3" r="3.5" fill="#56d364" opacity="0.9"/>
<circle cx="676.2" cy="164.9" r="3.5" fill="#56d364" opacity="0.9"/>
<circle cx="695.2" cy="142.4" r="3.5" fill="#f78166" opacity="0.9"/>
<text x="696.4" y="130.5" font-size="5.5" fill="#f78166" font-family="sans-serif" text-anchor="middle" dominant-baseline="central" font-weight="600">4s</text>
<circle cx="711.4" cy="145.6" r="3.5" fill="#f78166" opacity="0.9"/>
<circle cx="726.6" cy="151.9" r="3.5" fill="#79c0ff" opacity="0.9"/>
<text x="732.3" y="141.3" font-size="5.5" fill="#79c0ff" font-family="sans-serif" text-anchor="middle" dominant-baseline="central" font-weight="600">4p</text>
<circle cx="740.3" cy="161.1" r="3.5" fill="#79c0ff" opacity="0.9"/>
<circle cx="751.9" cy="172.7" r="3.5" fill="#79c0ff" opacity="0.9"/>
<circle cx="761.1" cy="186.4" r="3.5" fill="#79c0ff" opacity="0.9"/>
<circle cx="767.4" cy="201.6" r="2.5" fill="none" stroke="#30363d" stroke-width="0.6" opacity="0.5"/>
<circle cx="770.6" cy="217.8" r="2.5" fill="none" stroke="#30363d" stroke-width="0.6" opacity="0.5"/>
<circle cx="770.6" cy="234.2" r="2.5" fill="none" stroke="#30363d" stroke-width="0.6" opacity="0.5"/>
<text x="782.5" y="235.4" font-size="5.5" fill="#56d364" font-family="sans-serif" text-anchor="middle" dominant-baseline="central" font-weight="600">4d</text>
<circle cx="767.4" cy="250.4" r="2.5" fill="none" stroke="#30363d" stroke-width="0.6" opacity="0.5"/>
<circle cx="761.1" cy="265.6" r="2.5" fill="none" stroke="#30363d" stroke-width="0.6" opacity="0.5"/>
<circle cx="751.9" cy="279.3" r="2.5" fill="none" stroke="#30363d" stroke-width="0.6" opacity="0.5"/>
<circle cx="740.3" cy="290.9" r="2.5" fill="none" stroke="#30363d" stroke-width="0.6" opacity="0.5"/>
<circle cx="726.6" cy="300.1" r="2.5" fill="none" stroke="#30363d" stroke-width="0.6" opacity="0.5"/>
<circle cx="711.4" cy="306.4" r="2.5" fill="none" stroke="#30363d" stroke-width="0.6" opacity="0.5"/>
<circle cx="695.2" cy="309.6" r="2.5" fill="none" stroke="#30363d" stroke-width="0.6" opacity="0.5"/>
<circle cx="678.8" cy="309.6" r="2.5" fill="none" stroke="#30363d" stroke-width="0.6" opacity="0.5"/>
<circle cx="662.6" cy="306.4" r="2.5" fill="none" stroke="#30363d" stroke-width="0.6" opacity="0.5"/>
<circle cx="647.4" cy="300.1" r="2.5" fill="none" stroke="#30363d" stroke-width="0.6" opacity="0.5"/>
<text x="641.7" y="310.7" font-size="5.5" fill="#d2a8ff" font-family="sans-serif" text-anchor="middle" dominant-baseline="central" font-weight="600">4f</text>
<circle cx="633.7" cy="290.9" r="2.5" fill="none" stroke="#30363d" stroke-width="0.6" opacity="0.5"/>
<circle cx="622.1" cy="279.3" r="2.5" fill="none" stroke="#30363d" stroke-width="0.6" opacity="0.5"/>
<circle cx="612.9" cy="265.6" r="2.5" fill="none" stroke="#30363d" stroke-width="0.6" opacity="0.5"/>
<circle cx="606.6" cy="250.4" r="2.5" fill="none" stroke="#30363d" stroke-width="0.6" opacity="0.5"/>
<circle cx="603.4" cy="234.2" r="2.5" fill="none" stroke="#30363d" stroke-width="0.6" opacity="0.5"/>
<circle cx="603.4" cy="217.8" r="2.5" fill="none" stroke="#30363d" stroke-width="0.6" opacity="0.5"/>
<circle cx="606.6" cy="201.6" r="2.5" fill="none" stroke="#30363d" stroke-width="0.6" opacity="0.5"/>
<circle cx="612.9" cy="186.4" r="2.5" fill="none" stroke="#30363d" stroke-width="0.6" opacity="0.5"/>
<circle cx="622.1" cy="172.7" r="2.5" fill="none" stroke="#30363d" stroke-width="0.6" opacity="0.5"/>
<circle cx="633.7" cy="161.1" r="2.5" fill="none" stroke="#30363d" stroke-width="0.6" opacity="0.5"/>
<circle cx="647.4" cy="151.9" r="2.5" fill="none" stroke="#30363d" stroke-width="0.6" opacity="0.5"/>
<circle cx="662.6" cy="145.6" r="2.5" fill="none" stroke="#30363d" stroke-width="0.6" opacity="0.5"/>
<circle cx="678.8" cy="142.4" r="2.5" fill="none" stroke="#30363d" stroke-width="0.6" opacity="0.5"/>
<text x="707" y="229.0" font-size="5.5" fill="#8b949e" font-family="sans-serif">n=1</text>
<text x="729" y="229.0" font-size="5.5" fill="#8b949e" font-family="sans-serif">n=2</text>
<text x="751" y="229.0" font-size="5.5" fill="#8b949e" font-family="sans-serif">n=3</text>
<text x="773" y="229.0" font-size="5.5" fill="#8b949e" font-family="sans-serif">n=4</text>
</svg>
