<?xml version="1.0" encoding="utf-8"?>
<svg xmlns="http://www.w3.org/2000/svg" viewBox="287 355 250 220">
<rect x="287" y="355" width="250" height="220" fill="#0d1117"/>
<rect x="292" y="360" width="240" height="210" rx="5" fill="#21262d" stroke="#79c0ff" stroke-width="1.0" opacity="1.0"/>
<rect x="298" y="366" width="70" height="16" rx="3" fill="#79c0ff" stroke="#79c0ff" stroke-width="0.6" opacity="0.2"/>
<text x="333" y="377" font-size="9" fill="#79c0ff" font-weight="700" font-family="sans-serif" text-anchor="middle">p-orbital</text>
<ellipse cx="436.0" cy="450.0" rx="11" ry="20" transform="rotate(90,436.0,450.0)" fill="#79c0ff" opacity="0.9"/>
<ellipse cx="388.0" cy="450.0" rx="11" ry="20" transform="rotate(90,388.0,450.0)" fill="#79c0ff" opacity="0.9"/>
<ellipse cx="424.0" cy="429.2" rx="11" ry="20" transform="rotate(30,424.0,429.2)" fill="#79c0ff" opacity="0.45"/>
<ellipse cx="400.0" cy="470.8" rx="11" ry="20" transform="rotate(30,400.0,470.8)" fill="#79c0ff" opacity="0.45"/>
<ellipse cx="424.0" cy="470.8" rx="11" ry="20" transform="rotate(150,424.0,470.8)" fill="#79c0ff" opacity="0.45"/>
<ellipse cx="400.0" cy="429.2" rx="11" ry="20" transform="rotate(150,400.0,429.2)" fill="#79c0ff" opacity="0.45"/>
<circle cx="412" cy="450.0" r="3.5" fill="#fff" opacity="0.9"/>
<text x="416" y="400" font-size="8" fill="#79c0ff" font-weight="400" font-family="sans-serif" text-anchor="middle">pz</text>
<text x="456" y="462" font-size="8" fill="#79c0ff" font-weight="400" font-family="sans-serif" text-anchor="middle">px</text>
<text x="370" y="462" font-size="8" fill="#79c0ff" font-weight="400" font-family="sans-serif" text-anchor="middle">py</text>
<text x="412" y="512" font-size="11" fill="#e6edf3" font-weight="600" font-family="sans-serif" text-anchor="middle">Dumbbells</text>
<text x="412" y="526" font-size="9" fill="#8b949e" font-weight="400" font-family="sans-serif" text-anchor="middle">3 orientations</text>
<text x="412" y="537" font-size="9" fill="#8b949e" font-weight="400" font-family="sans-serif" text-anchor="middle">(x, y, z)</text>
<rect x="360" y="542" width="104" height="16" rx="3" fill="#79c0ff" stroke="#79c0ff" stroke-width="0.6" opacity="0.2"/>
<text x="412" y="553" font-size="8" fill="#79c0ff" font-weight="700" font-family="sans-serif" text-anchor="middle">3 orbitals × 2 = 6e max</text>
</svg>
